Hubballi-Regular-wire-97-LatinOnly.ufo
<glyph name="dollar" format="1">
  <advance width="574"/>
  <unicode hex="0024"/>
  <outline>
    <contour>
      <point x="437" y="481" type="move"/>
      <point x="383" y="500"/>
      <point x="344" y="510"/>
      <point x="265" y="510" type="curve" smooth="yes"/>
      <point x="167" y="510"/>
      <point x="109" y="461"/>
      <point x="109" y="410" type="curve" smooth="yes"/>
      <point x="109" y="362"/>
      <point x="135" y="308"/>
      <point x="289" y="284" type="curve" smooth="yes"/>
      <point x="429" y="258"/>
      <point x="476" y="209"/>
      <point x="476" y="147" type="curve" smooth="yes"/>
      <point x="476" y="86"/>
      <point x="419" y="30"/>
      <point x="288" y="30" type="curve" smooth="yes"/>
      <point x="219" y="30"/>
      <point x="154" y="44"/>
      <point x="94" y="71" type="curve"/>
      <point x="94" y="71"/>
    </contour>
    <contour>
      <point x="284" y="598" type="move"/>
      <point x="284" y="-64" type="line"/>
    </contour>
  </outline>
</glyph>
<glyph name="percent" format="1">
  <advance width="814"/>
  <unicode hex="0025"/>
  <outline>
    <contour>
      <point x="550" y="508" type="move"/>
      <point x="267" y="43" type="line"/>
    </contour>
    <contour>
      <point x="203" y="515" type="curve" smooth="yes"/>
      <point x="139" y="515"/>
      <point x="94" y="460"/>
      <point x="94" y="383" type="curve" smooth="yes"/>
      <point x="94" y="313"/>
      <point x="140" y="254"/>
      <point x="203" y="254" type="curve" smooth="yes"/>
      <point x="272" y="254"/>
      <point x="311" y="313"/>
      <point x="311" y="384" type="curve" smooth="yes"/>
      <point x="311" y="460"/>
      <point x="263" y="515"/>
    </contour>
    <contour>
      <point x="612" y="294" type="curve" smooth="yes"/>
      <point x="548" y="294"/>
      <point x="503" y="239"/>
      <point x="503" y="163" type="curve" smooth="yes"/>
      <point x="503" y="93"/>
      <point x="549" y="33"/>
      <point x="612" y="33" type="curve" smooth="yes"/>
      <point x="681" y="33"/>
      <point x="720" y="93"/>
      <point x="720" y="164" type="curve" smooth="yes"/>
      <point x="720" y="239"/>
      <point x="672" y="294"/>
    </contour>
  </outline>
</glyph>
<glyph name="ampersand" format="1">
  <advance width="634"/>
  <unicode hex="0026"/>
  <outline>
    <contour>
      <point x="520" y="287" type="move"/>
      <point x="434" y="169" type="line" smooth="yes"/>
      <point x="360" y="69"/>
      <point x="306" y="35"/>
      <point x="233" y="35" type="curve" smooth="yes"/>
      <point x="150" y="35"/>
      <point x="92" y="84"/>
      <point x="92" y="148" type="curve" smooth="yes"/>
      <point x="92" y="211"/>
      <point x="126" y="260"/>
      <point x="272" y="317" type="curve" smooth="yes"/>
      <point x="335" y="342"/>
      <point x="364" y="378"/>
      <point x="364" y="423" type="curve" smooth="yes"/>
      <point x="364" y="475"/>
      <point x="318" y="515"/>
      <point x="258" y="515" type="curve" smooth="yes"/>
      <point x="199" y="515"/>
      <point x="155" y="477"/>
      <point x="155" y="419" type="curve" smooth="yes"/>
      <point x="155" y="367"/>
      <point x="195" y="328"/>
      <point x="254" y="278" type="curve" smooth="yes"/>
      <point x="535" y="43" type="line"/>
    </contour>
  </outline>
</glyph>
<glyph name="parenleft" format="1">
  <advance width="335"/>
  <unicode hex="0028"/>
  <outline>
    <contour>
      <point x="233" y="596" type="move"/>
      <point x="158" y="516"/>
      <point x="97" y="394"/>
      <point x="97" y="266" type="curve" smooth="yes"/>
      <point x="97" y="139"/>
      <point x="154" y="23"/>
      <point x="233" y="-56" type="curve"/>
    </contour>
  </outline>
</glyph>
<glyph name="comma" format="1">
  <advance width="230"/>
  <unicode hex="002C"/>
  <outline>
    <contour>
      <point x="110" y="90" type="move"/>
      <point x="114" y="78"/>
      <point x="116" y="61"/>
      <point x="116" y="43" type="curve" smooth="yes"/>
      <point x="116" y="-1"/>
      <point x="100" y="-45"/>
      <point x="74" y="-79" type="curve"/>
    </contour>
  </outline>
</glyph>
<glyph name="two" format="1">
  <advance width="508"/>
  <unicode hex="0032"/>
  <outline>
    <contour>
      <point x="86" y="52" type="move"/>
      <point x="252" y="204" type="line" smooth="yes"/>
      <point x="361" y="304"/>
      <point x="395" y="348"/>
      <point x="395" y="408" type="curve" smooth="yes"/>
      <point x="395" y="463"/>
      <point x="350" y="517"/>
      <point x="258" y="517" type="curve" smooth="yes"/>
      <point x="206" y="517"/>
      <point x="154" y="503"/>
      <point x="107" y="475" type="curve"/>
    </contour>
    <contour>
      <point x="428" y="43" type="move"/>
      <point x="76" y="43" type="line"/>
    </contour>
  </outline>
</glyph>
<glyph name="three" format="1">
  <advance width="512"/>
  <unicode hex="0033"/>
  <outline>
    <contour>
      <point x="115" y="508" type="move"/>
      <point x="412" y="508" type="line"/>
    </contour>
    <contour>
      <point x="98" y="69" type="move"/>
      <point x="140" y="51"/>
      <point x="193" y="39"/>
      <point x="255" y="39" type="curve" smooth="yes"/>
      <point x="371" y="39"/>
      <point x="427" y="95"/>
      <point x="427" y="170" type="curve" smooth="yes"/>
      <point x="427" y="243"/>
      <point x="367" y="294"/>
      <point x="266" y="294" type="curve" smooth="yes"/>
      <point x="219" y="294"/>
      <point x="181" y="287"/>
      <point x="159" y="280" type="curve"/>
    </contour>
    <contour>
      <point x="403" y="501" type="move"/>
      <point x="164" y="284" type="line" smooth="yes"/>
    </contour>
  </outline>
</glyph>
<glyph name="six" format="1">
  <advance width="539"/>
  <unicode hex="0036"/>
  <outline>
    <contour>
      <point x="388" y="504" type="move"/>
      <point x="361" y="512"/>
      <point x="339" y="517"/>
      <point x="306" y="517" type="curve" smooth="yes"/>
      <point x="175" y="517"/>
      <point x="95" y="419"/>
      <point x="95" y="260" type="curve" smooth="yes"/>
      <point x="95" y="113"/>
      <point x="173" y="39"/>
      <point x="285" y="39" type="curve" smooth="yes"/>
      <point x="404" y="39"/>
      <point x="452" y="114"/>
      <point x="452" y="185" type="curve" smooth="yes"/>
      <point x="452" y="264"/>
      <point x="392" y="317"/>
      <point x="305" y="317" type="curve" smooth="yes"/>
      <point x="215" y="317"/>
      <point x="141" y="259"/>
      <point x="111" y="155" type="curve"/>
    </contour>
  </outline>
</glyph>
<glyph name="eight" format="1">
  <advance width="558"/>
  <unicode hex="0038"/>
  <outline>
    <contour>
      <point x="280" y="294" type="curve" smooth="yes"/>
      <point x="162" y="294"/>
      <point x="95" y="242"/>
      <point x="95" y="164" type="curve" smooth="yes"/>
      <point x="95" y="94"/>
      <point x="156" y="35"/>
      <point x="280" y="35" type="curve" smooth="yes"/>
      <point x="412" y="35"/>
      <point x="463" y="94"/>
      <point x="463" y="165" type="curve" smooth="yes"/>
      <point x="463" y="242"/>
      <point x="391" y="294"/>
    </contour>
    <contour>
      <point x="280" y="515" type="curve" smooth="yes"/>
      <point x="179" y="515"/>
      <point x="121" y="473"/>
      <point x="121" y="407" type="curve" smooth="yes"/>
      <point x="121" y="344"/>
      <point x="170" y="294"/>
      <point x="280" y="294" type="curve" smooth="yes"/>
      <point x="385" y="294"/>
      <point x="437" y="344"/>
      <point x="437" y="407" type="curve" smooth="yes"/>
      <point x="437" y="473"/>
      <point x="376" y="515"/>
    </contour>
  </outline>
</glyph>
<glyph name="question" format="1">
  <advance width="371"/>
  <unicode hex="003F"/>
  <outline>
    <contour>
      <point x="69" y="483" type="move"/>
      <point x="104" y="505"/>
      <point x="138" y="517"/>
      <point x="194" y="517" type="curve" smooth="yes"/>
      <point x="274" y="517"/>
      <point x="317" y="471"/>
      <point x="317" y="419" type="curve" smooth="yes"/>
      <point x="317" y="371"/>
      <point x="279" y="337"/>
      <point x="230" y="313" type="curve" smooth="yes"/>
      <point x="176" y="286"/>
      <point x="161" y="266"/>
      <point x="158" y="218" type="curve"/>
    </contour>
    <component base="period" xOffset="50"/>
  </outline>
</glyph>
<glyph name="at" format="1">
  <advance width="665"/>
  <unicode hex="0040"/>
  <outline>
    <contour>
      <point x="422" y="385" type="move"/>
      <point x="422" y="261" type="line" smooth="yes"/>
      <point x="422" y="202"/>
      <point x="459" y="167"/>
      <point x="504" y="167" type="curve" smooth="yes"/>
      <point x="554" y="167"/>
      <point x="591" y="210"/>
      <point x="591" y="285" type="curve" smooth="yes"/>
      <point x="591" y="405"/>
      <point x="497" y="518"/>
      <point x="336" y="518" type="curve" smooth="yes"/>
      <point x="186" y="518"/>
      <point x="76" y="405"/>
      <point x="76" y="271" type="curve" smooth="yes"/>
      <point x="76" y="137"/>
      <point x="183" y="33"/>
      <point x="339" y="33" type="curve" smooth="yes"/>
      <point x="401" y="33"/>
      <point x="453" y="46"/>
      <point x="492" y="63" type="curve"/>
    </contour>
    <contour>
      <point x="422" y="359" type="move"/>
      <point x="396" y="376"/>
      <point x="368" y="385"/>
      <point x="331" y="385" type="curve" smooth="yes"/>
      <point x="271" y="385"/>
      <point x="220" y="341"/>
      <point x="220" y="267" type="curve" smooth="yes"/>
      <point x="220" y="205"/>
      <point x="265" y="168"/>
      <point x="313" y="168" type="curve" smooth="yes"/>
      <point x="353" y="168"/>
      <point x="393" y="190"/>
      <point x="421" y="237" type="curve"/>
    </contour>
  </outline>
</glyph>
<glyph name="B" format="1">
  <advance width="528"/>
  <unicode hex="0042"/>
  <outline>
    <contour>
      <point x="132" y="293" type="move"/>
      <point x="281" y="293" type="line" smooth="yes"/>
      <point x="333" y="293"/>
      <point x="380" y="275"/>
      <point x="408" y="248" type="curve" smooth="yes"/>
      <point x="433" y="224"/>
      <point x="445" y="197"/>
      <point x="445" y="165" type="curve" smooth="yes"/>
      <point x="445" y="136"/>
      <point x="434" y="107"/>
      <point x="411" y="85" type="curve" smooth="yes"/>
      <point x="385" y="60"/>
      <point x="345" y="43"/>
      <point x="278" y="43" type="curve" smooth="yes"/>
      <point x="123" y="43" type="line"/>
      <point x="123" y="509" type="line"/>
      <point x="262" y="509" type="line" smooth="yes"/>
      <point x="312" y="509"/>
      <point x="346" y="493"/>
      <point x="367" y="473" type="curve" smooth="yes"/>
      <point x="385" y="456"/>
      <point x="397" y="427"/>
      <point x="397" y="402" type="curve" smooth="yes"/>
      <point x="397" y="374"/>
      <point x="385" y="347"/>
      <point x="367" y="330" type="curve" smooth="yes"/>
      <point x="349" y="313"/>
      <point x="314" y="295"/>
      <point x="273" y="293" type="curve"/>
    </contour>
  </outline>
</glyph>
<glyph name="C" format="1">
  <advance width="566"/>
  <unicode hex="0043"/>
  <outline>
    <contour>
      <point x="470" y="489" type="move"/>
      <point x="437" y="506"/>
      <point x="387" y="517"/>
      <point x="334" y="517" type="curve" smooth="yes"/>
      <point x="201" y="517"/>
      <point x="86" y="419"/>
      <point x="86" y="272" type="curve" smooth="yes"/>
      <point x="86" y="138"/>
      <point x="179" y="34"/>
      <point x="340" y="34" type="curve" smooth="yes"/>
      <point x="392" y="34"/>
      <point x="438" y="45"/>
      <point x="475" y="63" type="curve"/>
    </contour>
  </outline>
</glyph>
<glyph name="D" format="1">
  <advance width="612"/>
  <unicode hex="0044"/>
  <outline>
    <contour>
      <point x="299" y="43" type="line" smooth="yes"/>
      <point x="437" y="43"/>
      <point x="526" y="147"/>
      <point x="526" y="276" type="curve" smooth="yes"/>
      <point x="526" y="413"/>
      <point x="419" y="509"/>
      <point x="299" y="509" type="curve" smooth="yes"/>
      <point x="123" y="509" type="line"/>
      <point x="123" y="43" type="line"/>
    </contour>
  </outline>
</glyph>
<glyph name="J" format="1">
  <advance width="389"/>
  <unicode hex="004A"/>
  <outline>
    <contour>
      <point x="71" y="52" type="move"/>
      <point x="100" y="40"/>
      <point x="130" y="34"/>
      <point x="160" y="34" type="curve" smooth="yes"/>
      <point x="238" y="34"/>
      <point x="278" y="83"/>
      <point x="278" y="179" type="curve" smooth="yes"/>
      <point x="278" y="508" type="line"/>
    </contour>
  </outline>
</glyph>
<glyph name="K" format="1">
  <advance width="557"/>
  <unicode hex="004B"/>
  <outline>
    <contour>
      <point x="123" y="509" type="move"/>
      <point x="123" y="43" type="line"/>
    </contour>
    <contour>
      <point x="247" y="310" type="move"/>
      <point x="304" y="244"/>
      <point x="424" y="103"/>
      <point x="479" y="43" type="curve"/>
    </contour>
    <contour>
      <point x="123" y="204" type="move"/>
      <point x="171" y="247"/>
      <point x="359" y="408"/>
      <point x="459" y="509" type="curve"/>
    </contour>
  </outline>
</glyph>
<glyph name="M" format="1">
  <advance width="820"/>
  <unicode hex="004D"/>
  <outline>
    <contour>
      <point x="173" y="517" type="move"/>
      <point x="149" y="380"/>
      <point x="117" y="152"/>
      <point x="105" y="41" type="curve"/>
    </contour>
    <contour>
      <point x="632" y="518" type="move"/>
      <point x="663" y="368"/>
      <point x="696" y="170"/>
      <point x="714" y="41" type="curve"/>
    </contour>
    <contour>
      <point x="185" y="505" type="move"/>
      <point x="247" y="383"/>
      <point x="341" y="194"/>
      <point x="408" y="59" type="curve"/>
    </contour>
    <contour>
      <point x="411" y="71" type="move"/>
      <point x="471" y="201"/>
      <point x="551" y="370"/>
      <point x="625" y="510" type="curve"/>
    </contour>
  </outline>
</glyph>
<glyph name="R" format="1">
  <advance width="541"/>
  <unicode hex="0052"/>
  <outline>
    <contour>
      <point x="139" y="234" type="move"/>
      <point x="270" y="234" type="line" smooth="yes"/>
      <point x="381" y="234"/>
      <point x="436" y="296"/>
      <point x="436" y="371" type="curve" smooth="yes"/>
      <point x="436" y="452"/>
      <point x="370" y="509"/>
      <point x="270" y="509" type="curve" smooth="yes"/>
      <point x="123" y="509" type="line"/>
      <point x="123" y="43" type="line"/>
    </contour>
    <contour>
      <point x="299" y="228" type="move"/>
      <point x="464" y="43" type="line"/>
    </contour>
  </outline>
</glyph>
<glyph name="S" format="1">
  <advance width="525"/>
  <unicode hex="0053"/>
  <outline>
    <contour>
      <point x="393" y="485" type="move"/>
      <point x="346" y="503"/>
      <point x="312" y="514"/>
      <point x="243" y="514" type="curve" smooth="yes"/>
      <point x="158" y="514"/>
      <point x="107" y="465"/>
      <point x="107" y="414" type="curve" smooth="yes"/>
      <point x="107" y="366"/>
      <point x="130" y="312"/>
      <point x="264" y="287" type="curve" smooth="yes"/>
      <point x="386" y="262"/>
      <point x="427" y="213"/>
      <point x="427" y="151" type="curve" smooth="yes"/>
      <point x="427" y="90"/>
      <point x="377" y="34"/>
      <point x="263" y="34" type="curve" smooth="yes"/>
      <point x="203" y="34"/>
      <point x="146" y="47"/>
      <point x="94" y="75" type="curve"/>
    </contour>
  </outline>
</glyph>
<glyph name="W" format="1">
  <advance width="897"/>
  <unicode hex="0057"/>
  <outline>
    <contour>
      <point x="91" y="507" type="move"/>
      <point x="125" y="388"/>
      <point x="225" y="111"/>
      <point x="260" y="40" type="curve"/>
    </contour>
    <contour>
      <point x="264" y="34" type="move"/>
      <point x="301" y="115"/>
      <point x="406" y="369"/>
      <point x="449" y="504" type="curve"/>
    </contour>
    <contour>
      <point x="453" y="493" type="move"/>
      <point x="491" y="376"/>
      <point x="594" y="110"/>
      <point x="630" y="39" type="curve"/>
    </contour>
    <contour>
      <point x="634" y="33" type="move"/>
      <point x="671" y="114"/>
      <point x="766" y="370"/>
      <point x="807" y="507" type="curve"/>
    </contour>
  </outline>
</glyph>
<glyph name="Y" format="1">
  <advance width="560"/>
  <unicode hex="0059"/>
  <outline>
    <contour>
      <point x="282" y="204" type="move"/>
      <point x="282" y="43" type="line"/>
    </contour>
    <contour>
      <point x="74" y="509" type="move"/>
      <point x="116" y="441"/>
      <point x="236" y="271"/>
      <point x="279" y="216" type="curve"/>
    </contour>
    <contour>
      <point x="282" y="210" type="move"/>
      <point x="331" y="273"/>
      <point x="445" y="442"/>
      <point x="486" y="509" type="curve"/>
    </contour>
  </outline>
</glyph>
<glyph name="a" format="1">
  <advance width="450"/>
  <unicode hex="0061"/>
  <outline>
    <contour>
      <point x="122" y="356" type="move"/>
      <point x="143" y="363"/>
      <point x="182" y="371"/>
      <point x="215" y="371" type="curve" smooth="yes"/>
      <point x="307" y="371"/>
      <point x="349" y="318"/>
      <point x="349" y="240" type="curve" smooth="yes"/>
      <point x="349" y="152" type="line" smooth="yes"/>
      <point x="349" y="100"/>
      <point x="362" y="69"/>
      <point x="386" y="44" type="curve"/>
    </contour>
    <contour>
      <point x="348" y="229" type="move"/>
      <point x="314" y="230"/>
      <point x="284" y="232"/>
      <point x="255" y="232" type="curve" smooth="yes"/>
      <point x="182" y="232"/>
      <point x="133" y="215"/>
      <point x="103" y="186" type="curve" smooth="yes"/>
      <point x="82" y="167"/>
      <point x="75" y="145"/>
      <point x="75" y="121" type="curve" smooth="yes"/>
      <point x="75" y="86"/>
      <point x="101" y="43"/>
      <point x="172" y="43" type="curve" smooth="yes"/>
      <point x="246" y="43"/>
      <point x="301" y="72"/>
      <point x="349" y="134" type="curve"/>
    </contour>
  </outline>
</glyph>
<glyph name="b" format="1">
  <advance width="505"/>
  <unicode hex="0062"/>
  <outline>
    <contour>
      <point x="110" y="44" type="move"/>
      <point x="110" y="534" type="line"/>
    </contour>
    <contour>
      <point x="110" y="80" type="move"/>
      <point x="158" y="55"/>
      <point x="209" y="43"/>
      <point x="268" y="43" type="curve" smooth="yes"/>
      <point x="364" y="43"/>
      <point x="432" y="106"/>
      <point x="432" y="206" type="curve" smooth="yes"/>
      <point x="432" y="305"/>
      <point x="365" y="371"/>
      <point x="281" y="371" type="curve" smooth="yes"/>
      <point x="219" y="371"/>
      <point x="156" y="329"/>
      <point x="111" y="260" type="curve" smooth="yes"/>
      <point x="81" y="213"/>
    </contour>
  </outline>
</glyph>
<glyph name="c" format="1">
  <advance width="436"/>
  <unicode hex="0063"/>
  <outline>
    <contour>
      <point x="349" y="357" type="move"/>
      <point x="322" y="366"/>
      <point x="289" y="371"/>
      <point x="260" y="371" type="curve" smooth="yes"/>
      <point x="142" y="371"/>
      <point x="74" y="298"/>
      <point x="74" y="199" type="curve" smooth="yes"/>
      <point x="74" y="111"/>
      <point x="140" y="43"/>
      <point x="259" y="43" type="curve" smooth="yes"/>
      <point x="300" y="43"/>
      <point x="333" y="51"/>
      <point x="361" y="61" type="curve"/>
    </contour>
  </outline>
</glyph>
<glyph name="e" format="1">
  <advance width="460"/>
  <unicode hex="0065"/>
  <outline>
    <contour>
      <point x="87" y="206" type="move"/>
      <point x="296" y="206" type="line" smooth="yes"/>
      <point x="356" y="206"/>
      <point x="378" y="229"/>
      <point x="378" y="266" type="curve" smooth="yes"/>
      <point x="378" y="312"/>
      <point x="325" y="371"/>
      <point x="242" y="371" type="curve" smooth="yes"/>
      <point x="149" y="371"/>
      <point x="74" y="303"/>
      <point x="74" y="202" type="curve" smooth="yes"/>
      <point x="74" y="99"/>
      <point x="151" y="43"/>
      <point x="262" y="43" type="curve" smooth="yes"/>
      <point x="298" y="43"/>
      <point x="333" y="51"/>
      <point x="359" y="60" type="curve"/>
      <point x="359" y="60"/>
    </contour>
  </outline>
</glyph>
<glyph name="g" format="1">
  <advance width="503"/>
  <unicode hex="0067"/>
  <outline>
    <contour>
      <point x="393" y="329" type="move"/>
      <point x="341" y="353"/>
      <point x="306" y="364"/>
      <point x="250" y="364" type="curve" smooth="yes"/>
      <point x="161" y="364"/>
      <point x="74" y="297"/>
      <point x="74" y="191" type="curve" smooth="yes"/>
      <point x="74" y="90"/>
      <point x="145" y="47"/>
      <point x="216" y="47" type="curve" smooth="yes"/>
      <point x="282" y="47"/>
      <point x="348" y="83"/>
      <point x="392" y="150" type="curve"/>
    </contour>
    <contour>
      <point x="162" y="-138" type="move"/>
      <point x="322" y="-138"/>
      <point x="393" y="-52"/>
      <point x="393" y="80" type="curve" smooth="yes"/>
      <point x="393" y="364" type="line"/>
    </contour>
  </outline>
</glyph>
<glyph name="q" format="1">
  <advance width="505"/>
  <unicode hex="0071"/>
  <outline>
    <contour>
      <point x="395" y="364" type="move"/>
      <point x="395" y="-148" type="line" smooth="yes"/>
    </contour>
    <contour>
      <point x="395" y="324" type="move"/>
      <point x="354" y="349"/>
      <point x="309" y="364"/>
      <point x="251" y="364" type="curve" smooth="yes"/>
      <point x="156" y="364"/>
      <point x="74" y="296"/>
      <point x="74" y="185" type="curve" smooth="yes"/>
      <point x="74" y="91"/>
      <point x="146" y="35"/>
      <point x="222" y="35" type="curve" smooth="yes"/>
      <point x="286" y="35"/>
      <point x="349" y="69"/>
      <point x="394" y="139" type="curve"/>
    </contour>
  </outline>
</glyph>
<glyph name="s" format="1">
  <advance width="450"/>
  <unicode hex="0073"/>
  <outline>
    <contour>
      <point x="336" y="360" type="move"/>
      <point x="307" y="367"/>
      <point x="269" y="374"/>
      <point x="227" y="374" type="curve" smooth="yes"/>
      <point x="134" y="374"/>
      <point x="99" y="333"/>
      <point x="99" y="293" type="curve" smooth="yes"/>
      <point x="99" y="258"/>
      <point x="129" y="226"/>
      <point x="219" y="218" type="curve" smooth="yes"/>
      <point x="259" y="214" type="line" smooth="yes"/>
      <point x="337" y="206"/>
      <point x="369" y="168"/>
      <point x="369" y="125" type="curve" smooth="yes"/>
      <point x="369" y="81"/>
      <point x="332" y="39"/>
      <point x="233" y="39" type="curve" smooth="yes"/>
      <point x="186" y="39"/>
      <point x="137" y="48"/>
      <point x="93" y="66" type="curve"/>
    </contour>
  </outline>
</glyph>
<glyph name="braceleft" format="1">
  <advance width="412"/>
  <unicode hex="007B"/>
  <outline>
    <contour>
      <point x="310" y="596" type="move"/>
      <point x="290" y="596" type="line" smooth="yes"/>
      <point x="192" y="596"/>
      <point x="132" y="547"/>
      <point x="132" y="492" type="curve" smooth="yes"/>
      <point x="132" y="430"/>
      <point x="199" y="396"/>
      <point x="199" y="340" type="curve" smooth="yes"/>
      <point x="199" y="306"/>
      <point x="165" y="282"/>
      <point x="97" y="272" type="curve"/>
      <point x="97" y="267" type="line"/>
      <point x="165" y="257"/>
      <point x="199" y="233"/>
      <point x="199" y="198" type="curve" smooth="yes"/>
      <point x="199" y="143"/>
      <point x="132" y="109"/>
      <point x="132" y="47" type="curve" smooth="yes"/>
      <point x="132" y="-8"/>
      <point x="192" y="-57"/>
      <point x="290" y="-57" type="curve" smooth="yes"/>
      <point x="310" y="-57" type="line"/>
    </contour>
  </outline>
</glyph>
<glyph name="asciitilde" format="1">
  <advance width="612"/>
  <unicode hex="007E"/>
  <outline>
    <contour>
      <point x="113" y="228" type="move"/>
      <point x="148" y="296"/>
      <point x="179" y="331"/>
      <point x="222" y="331" type="curve" smooth="yes"/>
      <point x="258" y="331"/>
      <point x="280" y="306"/>
      <point x="309" y="276" type="curve" smooth="yes"/>
      <point x="340" y="241"/>
      <point x="366" y="220"/>
      <point x="400" y="220" type="curve" smooth="yes"/>
      <point x="448" y="220"/>
      <point x="477" y="256"/>
      <point x="516" y="335" type="curve"/>
    </contour>
  </outline>
</glyph>
<glyph name="cent" format="1">
  <advance width="433"/>
  <unicode hex="00A2"/>
  <outline>
    <contour>
      <point x="239" y="508" type="move"/>
      <point x="239" y="43" type="line"/>
    </contour>
    <contour>
      <point x="349" y="416" type="move"/>
      <point x="322" y="424"/>
      <point x="289" y="430"/>
      <point x="260" y="430" type="curve" smooth="yes"/>
      <point x="142" y="430"/>
      <point x="74" y="361"/>
      <point x="74" y="266" type="curve" smooth="yes"/>
      <point x="74" y="182"/>
      <point x="140" y="117"/>
      <point x="259" y="117" type="curve" smooth="yes"/>
      <point x="300" y="117"/>
      <point x="333" y="125"/>
      <point x="361" y="134" type="curve"/>
    </contour>
  </outline>
</glyph>
<glyph name="sterling" format="1">
  <advance width="456"/>
  <unicode hex="00A3"/>
  <outline>
    <contour>
      <point x="66" y="52" type="move"/>
      <point x="143" y="119" type="line" smooth="yes"/>
      <point x="172" y="144"/>
      <point x="193" y="175"/>
      <point x="193" y="203" type="curve" smooth="yes"/>
      <point x="193" y="228"/>
      <point x="178" y="260"/>
      <point x="154" y="287" type="curve" smooth="yes"/>
      <point x="116" y="330"/>
      <point x="92" y="363"/>
      <point x="92" y="409" type="curve" smooth="yes"/>
      <point x="92" y="463"/>
      <point x="135" y="517"/>
      <point x="214" y="517" type="curve" smooth="yes"/>
      <point x="260" y="517"/>
      <point x="302" y="504"/>
      <point x="337" y="483" type="curve"/>
    </contour>
    <contour>
      <point x="370" y="43" type="move"/>
      <point x="56" y="43" type="line"/>
    </contour>
    <contour>
      <point x="62" y="259" type="move"/>
      <point x="361" y="259" type="line"/>
    </contour>
  </outline>
</glyph>
<glyph name="currency" format="1">
  <advance width="521"/>
  <unicode hex="00A4"/>
  <outline>
    <contour>
      <point x="260" y="392" type="curve" smooth="yes"/>
      <point x="162" y="392"/>
      <point x="102" y="320"/>
      <point x="102" y="236" type="curve" smooth="yes"/>
      <point x="102" y="152"/>
      <point x="164" y="86"/>
      <point x="260" y="86" type="curve" smooth="yes"/>
      <point x="356" y="86"/>
      <point x="418" y="151"/>
      <point x="418" y="234" type="curve" smooth="yes"/>
      <point x="418" y="320"/>
      <point x="357" y="392"/>
    </contour>
    <contour>
      <point x="444" y="44" type="move"/>
      <point x="373" y="119" type="line"/>
    </contour>
    <contour>
      <point x="147" y="356" type="move"/>
      <point x="82" y="424" type="line"/>
    </contour>
    <contour>
      <point x="373" y="357" type="move"/>
      <point x="438" y="426" type="line"/>
    </contour>
    <contour>
      <point x="77" y="44" type="move"/>
      <point x="145" y="116" type="line"/>
    </contour>
  </outline>
</glyph>
<glyph name="section" format="1">
  <advance width="525"/>
  <unicode hex="00A7"/>
  <outline>
    <contour>
      <point x="393" y="486" type="move"/>
      <point x="346" y="501"/>
      <point x="312" y="509"/>
      <point x="243" y="509" type="curve" smooth="yes"/>
      <point x="158" y="509"/>
      <point x="107" y="469"/>
      <point x="107" y="427" type="curve" smooth="yes"/>
      <point x="107" y="388"/>
      <point x="130" y="342"/>
      <point x="264" y="323" type="curve" smooth="yes"/>
      <point x="386" y="300"/>
      <point x="427" y="260"/>
      <point x="427" y="209" type="curve" smooth="yes"/>
      <point x="427" y="158"/>
      <point x="377" y="117"/>
      <point x="263" y="117" type="curve" smooth="yes"/>
    </contour>
    <contour>
      <point x="233" y="324" type="move" smooth="yes"/>
      <point x="148" y="324"/>
      <point x="97" y="287"/>
      <point x="97" y="228" type="curve" smooth="yes"/>
      <point x="97" y="186"/>
      <point x="120" y="139"/>
      <point x="254" y="117" type="curve" smooth="yes"/>
      <point x="376" y="97"/>
      <point x="417" y="69"/>
      <point x="417" y="17" type="curve" smooth="yes"/>
      <point x="417" y="-34"/>
      <point x="367" y="-80"/>
      <point x="253" y="-80" type="curve" smooth="yes"/>
      <point x="193" y="-80"/>
      <point x="136" y="-69"/>
      <point x="84" y="-46" type="curve"/>
    </contour>
  </outline>
</glyph>
<glyph name="dieresis" format="1">
  <advance width="490"/>
  <unicode hex="00A8"/>
  <outline>
    <contour>
      <point x="150" y="585" type="curve" smooth="yes"/>
      <point x="139" y="585"/>
      <point x="133" y="573"/>
      <point x="133" y="560" type="curve" smooth="yes"/>
      <point x="133" y="548"/>
      <point x="139" y="537"/>
      <point x="150" y="537" type="curve" smooth="yes"/>
      <point x="160" y="537"/>
      <point x="166" y="548"/>
      <point x="166" y="560" type="curve" smooth="yes"/>
      <point x="166" y="573"/>
      <point x="160" y="585"/>
    </contour>
    <contour>
      <point x="328" y="585" type="curve" smooth="yes"/>
      <point x="317" y="585"/>
      <point x="311" y="573"/>
      <point x="311" y="560" type="curve" smooth="yes"/>
      <point x="311" y="548"/>
      <point x="317" y="537"/>
      <point x="328" y="537" type="curve" smooth="yes"/>
      <point x="338" y="537"/>
      <point x="344" y="548"/>
      <point x="344" y="560" type="curve" smooth="yes"/>
      <point x="344" y="573"/>
      <point x="338" y="585"/>
    </contour>
  </outline>
</glyph>
<glyph name="copyright" format="1">
  <advance width="653"/>
  <unicode hex="00A9"/>
  <outline>
    <contour>
      <point x="405" y="385" type="move"/>
      <point x="388" y="394"/>
      <point x="363" y="401"/>
      <point x="335" y="401" type="curve" smooth="yes"/>
      <point x="267" y="401"/>
      <point x="206" y="349"/>
      <point x="206" y="274" type="curve" smooth="yes"/>
      <point x="206" y="204"/>
      <point x="255" y="150"/>
      <point x="338" y="150" type="curve" smooth="yes"/>
      <point x="365" y="150"/>
      <point x="389" y="156"/>
      <point x="408" y="166" type="curve"/>
    </contour>
    <contour>
      <point x="329" y="517" type="curve" smooth="yes"/>
      <point x="176" y="517"/>
      <point x="74" y="417"/>
      <point x="74" y="272" type="curve" smooth="yes"/>
      <point x="74" y="140"/>
      <point x="179" y="34"/>
      <point x="329" y="34" type="curve" smooth="yes"/>
      <point x="487" y="34"/>
      <point x="579" y="140"/>
      <point x="579" y="275" type="curve" smooth="yes"/>
      <point x="579" y="417"/>
      <point x="468" y="517"/>
    </contour>
  </outline>
</glyph>
<glyph name="ordfeminine" format="1">
  <advance width="444"/>
  <unicode hex="00AA"/>
  <outline>
    <contour>
      <point x="98" y="184" type="move"/>
      <point x="356" y="184" type="line"/>
    </contour>
    <contour>
      <point x="146" y="503" type="move"/>
      <point x="161" y="508"/>
      <point x="186" y="513"/>
      <point x="209" y="513" type="curve" smooth="yes"/>
      <point x="272" y="513"/>
      <point x="301" y="477"/>
      <point x="301" y="424" type="curve" smooth="yes"/>
      <point x="301" y="366" type="line" smooth="yes"/>
      <point x="301" y="332"/>
      <point x="309" y="311"/>
      <point x="325" y="293" type="curve"/>
    </contour>
    <contour>
      <point x="299" y="417" type="move"/>
      <point x="276" y="418"/>
      <point x="256" y="420"/>
      <point x="236" y="420" type="curve" smooth="yes"/>
      <point x="186" y="420"/>
      <point x="154" y="408"/>
      <point x="132" y="389" type="curve" smooth="yes"/>
      <point x="118" y="376"/>
      <point x="114" y="363"/>
      <point x="114" y="345" type="curve" smooth="yes"/>
      <point x="114" y="322"/>
      <point x="132" y="293"/>
      <point x="179" y="293" type="curve" smooth="yes"/>
      <point x="231" y="293"/>
      <point x="268" y="312"/>
      <point x="301" y="355" type="curve"/>
    </contour>
  </outline>
</glyph>
<glyph name="registered" format="1">
  <advance width="560"/>
  <unicode hex="00AE"/>
  <outline>
    <contour>
      <point x="235" y="390" type="move"/>
      <point x="282" y="390" type="line" smooth="yes"/>
      <point x="325" y="390"/>
      <point x="345" y="416"/>
      <point x="345" y="447" type="curve" smooth="yes"/>
      <point x="345" y="480"/>
      <point x="320" y="501"/>
      <point x="282" y="501" type="curve" smooth="yes"/>
      <point x="225" y="501" type="line"/>
      <point x="225" y="332" type="line"/>
    </contour>
    <contour>
      <point x="309" y="384" type="move"/>
      <point x="356" y="332" type="line"/>
    </contour>
    <contour>
      <point x="277" y="603" type="curve" smooth="yes"/>
      <point x="398" y="603"/>
      <point x="481" y="523"/>
      <point x="481" y="415" type="curve" smooth="yes"/>
      <point x="481" y="307"/>
      <point x="397" y="226"/>
      <point x="284" y="226" type="curve" smooth="yes"/>
      <point x="163" y="226"/>
      <point x="85" y="314"/>
      <point x="85" y="418" type="curve" smooth="yes"/>
      <point x="85" y="527"/>
      <point x="163" y="603"/>
    </contour>
  </outline>
</glyph>
<glyph name="degree" format="1">
  <advance width="440"/>
  <unicode hex="00B0"/>
  <outline>
    <contour>
      <point x="219" y="522" type="curve" smooth="yes"/>
      <point x="135" y="522"/>
      <point x="80" y="461"/>
      <point x="80" y="388" type="curve" smooth="yes"/>
      <point x="80" y="317"/>
      <point x="137" y="259"/>
      <point x="220" y="259" type="curve" smooth="yes"/>
      <point x="302" y="259"/>
      <point x="360" y="316"/>
      <point x="360" y="388" type="curve" smooth="yes"/>
      <point x="360" y="463"/>
      <point x="302" y="522"/>
    </contour>
  </outline>
</glyph>
<glyph name="acute" format="1">
  <advance width="490"/>
  <unicode hex="00B4"/>
  <outline>
    <contour>
      <point x="287" y="613" type="move"/>
      <point x="259" y="583"/>
      <point x="232" y="553"/>
      <point x="206" y="523" type="curve"/>
    </contour>
  </outline>
</glyph>
<glyph name="ordmasculine" format="1">
  <advance width="438"/>
  <unicode hex="00BA"/>
  <outline>
    <contour>
      <point x="219" y="513" type="curve" smooth="yes"/>
      <point x="148" y="513"/>
      <point x="105" y="462"/>
      <point x="105" y="402" type="curve" smooth="yes"/>
      <point x="105" y="340"/>
      <point x="150" y="294"/>
      <point x="219" y="294" type="curve" smooth="yes"/>
      <point x="288" y="294"/>
      <point x="332" y="340"/>
      <point x="332" y="402" type="curve" smooth="yes"/>
      <point x="332" y="462"/>
      <point x="288" y="513"/>
    </contour>
    <contour>
      <point x="98" y="184" type="move"/>
      <point x="347" y="184" type="line"/>
    </contour>
  </outline>
</glyph>
<glyph name="onehalf" format="1">
  <advance width="780"/>
  <unicode hex="00BD"/>
  <outline>
    <contour>
      <point x="492" y="509" type="move"/>
      <point x="209" y="43" type="line"/>
    </contour>
    <contour>
      <point x="202" y="515" type="move"/>
      <point x="202" y="268" type="line"/>
    </contour>
    <contour>
      <point x="202" y="518" type="move"/>
      <point x="120" y="476" type="line"/>
    </contour>
    <contour>
      <point x="471" y="48" type="move"/>
      <point x="560" y="127" type="line" smooth="yes"/>
      <point x="618" y="180"/>
      <point x="636" y="200"/>
      <point x="636" y="232" type="curve" smooth="yes"/>
      <point x="636" y="261"/>
      <point x="612" y="289"/>
      <point x="561" y="289" type="curve" smooth="yes"/>
      <point x="532" y="289"/>
      <point x="509" y="281"/>
      <point x="484" y="266" type="curve"/>
    </contour>
    <contour>
      <point x="655" y="43" type="move"/>
      <point x="466" y="43" type="line"/>
    </contour>
  </outline>
</glyph>
<glyph name="threequarters" format="1">
  <advance width="826"/>
  <unicode hex="00BE"/>
  <outline>
    <contour>
      <point x="586" y="509" type="move"/>
      <point x="303" y="43" type="line"/>
    </contour>
    <contour>
      <point x="649" y="294" type="move"/>
      <point x="649" y="44" type="line"/>
    </contour>
    <contour>
      <point x="645" y="289" type="move"/>
      <point x="491" y="116" type="line"/>
    </contour>
    <contour>
      <point x="496" y="116" type="move"/>
      <point x="711" y="116" type="line"/>
    </contour>
    <contour>
      <point x="136" y="509" type="move"/>
      <point x="308" y="509" type="line"/>
    </contour>
    <contour>
      <point x="126" y="273" type="move"/>
      <point x="150" y="265"/>
      <point x="181" y="258"/>
      <point x="217" y="258" type="curve" smooth="yes"/>
      <point x="284" y="258"/>
      <point x="317" y="288"/>
      <point x="317" y="327" type="curve" smooth="yes"/>
      <point x="317" y="367"/>
      <point x="282" y="394"/>
      <point x="224" y="394" type="curve" smooth="yes"/>
      <point x="196" y="394"/>
      <point x="174" y="391"/>
      <point x="162" y="387" type="curve"/>
    </contour>
    <contour>
      <point x="303" y="505" type="move"/>
      <point x="164" y="389" type="line" smooth="yes"/>
    </contour>
  </outline>
</glyph>
<glyph name="AE" format="1">
  <advance width="755"/>
  <unicode hex="00C6"/>
  <outline>
    <contour>
      <point x="354" y="509" type="move"/>
      <point x="251" y="346"/>
      <point x="125" y="164"/>
      <point x="43" y="43" type="curve"/>
    </contour>
    <contour>
      <point x="143" y="182" type="move"/>
      <point x="392" y="182" type="line"/>
    </contour>
    <contour>
      <point x="410" y="509" type="move"/>
      <point x="359" y="509" type="line"/>
    </contour>
    <component base="E" xOffset="270"/>
  </outline>
</glyph>
<glyph name="Thorn" format="1">
  <advance width="505"/>
  <unicode hex="00DE"/>
  <outline>
    <contour>
      <point x="123" y="509" type="move"/>
      <point x="123" y="43" type="line"/>
    </contour>
    <contour>
      <point x="149" y="140" type="move"/>
      <point x="260" y="140" type="line" smooth="yes"/>
      <point x="373" y="140"/>
      <point x="428" y="202"/>
      <point x="428" y="277" type="curve" smooth="yes"/>
      <point x="428" y="360"/>
      <point x="361" y="418"/>
      <point x="260" y="418" type="curve" smooth="yes"/>
      <point x="134" y="418" type="line"/>
    </contour>
  </outline>
</glyph>
<glyph name="germandbls" format="1">
  <advance width="509"/>
  <unicode hex="00DF"/>
  <outline>
    <contour>
      <point x="260" y="303" type="move"/>
      <point x="348" y="360"/>
      <point x="364" y="393"/>
      <point x="364" y="447" type="curve" smooth="yes"/>
      <point x="364" y="504"/>
      <point x="324" y="559"/>
      <point x="237" y="558" type="curve" smooth="yes"/>
      <point x="155" y="557"/>
      <point x="116" y="506"/>
      <point x="116" y="437" type="curve" smooth="yes"/>
      <point x="116" y="43" type="line"/>
    </contour>
    <contour>
      <point x="255" y="50" type="move"/>
      <point x="270" y="44"/>
      <point x="295" y="39"/>
      <point x="322" y="39" type="curve" smooth="yes"/>
      <point x="397" y="39"/>
      <point x="438" y="80"/>
      <point x="438" y="139" type="curve" smooth="yes"/>
      <point x="438" y="187"/>
      <point x="409" y="230"/>
      <point x="343" y="261" type="curve" smooth="yes"/>
      <point x="260" y="299" type="line"/>
    </contour>
  </outline>
</glyph>
<glyph name="ae" format="1">
  <advance width="745"/>
  <unicode hex="00E6"/>
  <outline>
    <contour>
      <point x="122" y="356" type="move"/>
      <point x="143" y="363"/>
      <point x="182" y="371"/>
      <point x="215" y="371" type="curve" smooth="yes"/>
      <point x="307" y="371"/>
      <point x="356" y="318"/>
      <point x="356" y="240" type="curve" smooth="yes"/>
      <point x="356" y="215" type="line" smooth="yes"/>
    </contour>
    <contour>
      <point x="355" y="229" type="move"/>
      <point x="321" y="230"/>
      <point x="284" y="232"/>
      <point x="255" y="232" type="curve" smooth="yes"/>
      <point x="182" y="232"/>
      <point x="133" y="215"/>
      <point x="103" y="186" type="curve" smooth="yes"/>
      <point x="82" y="167"/>
      <point x="75" y="145"/>
      <point x="75" y="121" type="curve" smooth="yes"/>
      <point x="75" y="86"/>
      <point x="101" y="43"/>
      <point x="172" y="43" type="curve" smooth="yes"/>
      <point x="246" y="43"/>
      <point x="313" y="79"/>
      <point x="370" y="127" type="curve"/>
    </contour>
    <component base="e" xOffset="285"/>
  </outline>
</glyph>
<glyph name="eth" format="1">
  <advance width="484"/>
  <unicode hex="00F0"/>
  <outline>
    <contour>
      <point x="392" y="278" type="move"/>
      <point x="362" y="305"/>
      <point x="298" y="335"/>
      <point x="232" y="335" type="curve" smooth="yes"/>
      <point x="140" y="335"/>
      <point x="71" y="275"/>
      <point x="71" y="184" type="curve" smooth="yes"/>
      <point x="71" y="105"/>
      <point x="131" y="39"/>
      <point x="231" y="39" type="curve" smooth="yes"/>
      <point x="338" y="39"/>
      <point x="403" y="106"/>
      <point x="403" y="224" type="curve" smooth="yes"/>
      <point x="403" y="322"/>
      <point x="356" y="420"/>
      <point x="209" y="538" type="curve"/>
    </contour>
    <component base="ethslash"/>
  </outline>
</glyph>
<glyph name="divide" format="1">
  <advance width="530"/>
  <unicode hex="00F7"/>
  <outline>
    <contour>
      <point x="96" y="280" type="move"/>
      <point x="433" y="280" type="line"/>
    </contour>
    <contour>
      <point x="267" y="157" type="curve" smooth="yes"/>
      <point x="254" y="157"/>
      <point x="250" y="146"/>
      <point x="250" y="134" type="curve" smooth="yes"/>
      <point x="250" y="121"/>
      <point x="257" y="111"/>
      <point x="268" y="111" type="curve" smooth="yes"/>
      <point x="280" y="111"/>
      <point x="284" y="121"/>
      <point x="284" y="134" type="curve" smooth="yes"/>
      <point x="284" y="146"/>
      <point x="279" y="157"/>
    </contour>
    <contour>
      <point x="267" y="446" type="curve" smooth="yes"/>
      <point x="254" y="446"/>
      <point x="250" y="435"/>
      <point x="250" y="423" type="curve" smooth="yes"/>
      <point x="250" y="410"/>
      <point x="257" y="400"/>
      <point x="268" y="400" type="curve" smooth="yes"/>
      <point x="280" y="400"/>
      <point x="284" y="410"/>
      <point x="284" y="423" type="curve" smooth="yes"/>
      <point x="284" y="435"/>
      <point x="279" y="446"/>
    </contour>
  </outline>
</glyph>
<glyph name="thorn" format="1">
  <advance width="503"/>
  <unicode hex="00FE"/>
  <outline>
    <contour>
      <point x="110" y="-148" type="move"/>
      <point x="110" y="525" type="line"/>
    </contour>
    <contour>
      <point x="110" y="97" type="move"/>
      <point x="156" y="60"/>
      <point x="211" y="35"/>
      <point x="265" y="35" type="curve" smooth="yes"/>
      <point x="363" y="35"/>
      <point x="430" y="106"/>
      <point x="430" y="200" type="curve" smooth="yes"/>
      <point x="430" y="306"/>
      <point x="358" y="364"/>
      <point x="277" y="364" type="curve" smooth="yes"/>
      <point x="212" y="364"/>
      <point x="156" y="322"/>
      <point x="111" y="261" type="curve"/>
    </contour>
  </outline>
</glyph>
<glyph name="OE" format="1">
  <advance width="811"/>
  <unicode hex="0152"/>
  <outline>
    <contour>
      <point x="455" y="509" type="move"/>
      <point x="322" y="509" type="line" smooth="yes"/>
      <point x="181" y="509"/>
      <point x="86" y="413"/>
      <point x="86" y="273" type="curve" smooth="yes"/>
      <point x="86" y="145"/>
      <point x="183" y="43"/>
      <point x="322" y="43" type="curve" smooth="yes"/>
      <point x="484" y="43" type="line"/>
    </contour>
    <component base="E" xOffset="324"/>
  </outline>
</glyph>
<glyph name="florin" format="1">
  <advance width="332"/>
  <unicode hex="0192"/>
  <outline>
    <contour>
      <point x="313" y="552" type="move"/>
      <point x="219" y="547"/>
      <point x="184" y="500"/>
      <point x="177" y="435" type="curve" smooth="yes"/>
      <point x="122" y="-112" type="line"/>
    </contour>
    <contour>
      <point x="69" y="365" type="move"/>
      <point x="295" y="365" type="line"/>
    </contour>
  </outline>
</glyph>
<glyph name="dotaccent" format="1">
  <advance width="490"/>
  <unicode hex="02D9"/>
  <outline>
    <contour>
      <point x="236" y="590" type="curve" smooth="yes"/>
      <point x="224" y="590"/>
      <point x="217" y="578"/>
      <point x="217" y="565" type="curve" smooth="yes"/>
      <point x="217" y="553"/>
      <point x="224" y="542"/>
      <point x="236" y="542" type="curve" smooth="yes"/>
      <point x="247" y="542"/>
      <point x="253" y="553"/>
      <point x="253" y="565" type="curve" smooth="yes"/>
      <point x="253" y="578"/>
      <point x="247" y="590"/>
    </contour>
  </outline>
</glyph>
<glyph name="ring" format="1">
  <advance width="490"/>
  <unicode hex="02DA"/>
  <outline>
    <contour>
      <point x="330" y="563" type="curve" smooth="yes"/>
      <point x="330" y="600"/>
      <point x="300" y="633"/>
      <point x="250" y="633" type="curve" smooth="yes"/>
      <point x="202" y="633"/>
      <point x="172" y="598"/>
      <point x="172" y="563" type="curve" smooth="yes"/>
      <point x="172" y="529"/>
      <point x="202" y="493"/>
      <point x="250" y="493" type="curve" smooth="yes"/>
      <point x="300" y="493"/>
      <point x="330" y="527"/>
    </contour>
  </outline>
</glyph>
<glyph name="tilde" format="1">
  <advance width="490"/>
  <unicode hex="02DC"/>
  <outline>
    <contour>
      <point x="135" y="540" type="move"/>
      <point x="154" y="567"/>
      <point x="175" y="586"/>
      <point x="195" y="586" type="curve" smooth="yes"/>
      <point x="213" y="586"/>
      <point x="225" y="576"/>
      <point x="247" y="560" type="curve" smooth="yes"/>
      <point x="267" y="546"/>
      <point x="282" y="536"/>
      <point x="299" y="536" type="curve" smooth="yes"/>
      <point x="320" y="536"/>
      <point x="336" y="553"/>
      <point x="356" y="582" type="curve"/>
    </contour>
  </outline>
</glyph>
<glyph name="quoteright" format="1">
  <advance width="245"/>
  <unicode hex="2019"/>
  <outline>
    <contour>
      <point x="124" y="581" type="move"/>
      <point x="128" y="569"/>
      <point x="130" y="552"/>
      <point x="130" y="534" type="curve" smooth="yes"/>
      <point x="130" y="490"/>
      <point x="115" y="446"/>
      <point x="89" y="412" type="curve"/>
    </contour>
  </outline>
</glyph>
<glyph name="quotesinglbase" format="1">
  <advance width="245"/>
  <unicode hex="201A"/>
  <outline>
    <contour>
      <point x="124" y="88" type="move"/>
      <point x="128" y="76"/>
      <point x="130" y="59"/>
      <point x="130" y="41" type="curve" smooth="yes"/>
      <point x="130" y="-3"/>
      <point x="115" y="-47"/>
      <point x="89" y="-81" type="curve" smooth="yes"/>
    </contour>
  </outline>
</glyph>
<glyph name="quotedblright" format="1">
  <advance width="406"/>
  <unicode hex="201D"/>
  <outline>
    <contour>
      <point x="285" y="580" type="move"/>
      <point x="289" y="565"/>
      <point x="291" y="548"/>
      <point x="291" y="525" type="curve" smooth="yes"/>
      <point x="291" y="488"/>
      <point x="275" y="445"/>
      <point x="249" y="412" type="curve" smooth="yes"/>
    </contour>
    <contour>
      <point x="125" y="580" type="move"/>
      <point x="129" y="565"/>
      <point x="131" y="548"/>
      <point x="131" y="525" type="curve" smooth="yes"/>
      <point x="131" y="488"/>
      <point x="115" y="445"/>
      <point x="89" y="412" type="curve" smooth="yes"/>
    </contour>
  </outline>
</glyph>
<glyph name="bullet" format="1">
  <advance width="521"/>
  <unicode hex="2022"/>
  <outline>
    <contour>
      <point x="260" y="352" type="curve" smooth="yes"/>
      <point x="198" y="352"/>
      <point x="155" y="302"/>
      <point x="155" y="253" type="curve" smooth="yes"/>
      <point x="155" y="197"/>
      <point x="201" y="154"/>
      <point x="260" y="154" type="curve" smooth="yes"/>
      <point x="322" y="154"/>
      <point x="365" y="198"/>
      <point x="365" y="252" type="curve" smooth="yes"/>
      <point x="365" y="302"/>
      <point x="326" y="352"/>
    </contour>
    <contour>
      <point x="261" y="295" type="curve" smooth="yes"/>
      <point x="235" y="295"/>
      <point x="216" y="275"/>
      <point x="216" y="255" type="curve" smooth="yes"/>
      <point x="216" y="230"/>
      <point x="236" y="212"/>
      <point x="261" y="212" type="curve" smooth="yes"/>
      <point x="286" y="212"/>
      <point x="305" y="230"/>
      <point x="305" y="253" type="curve" smooth="yes"/>
      <point x="305" y="275"/>
      <point x="290" y="295"/>
    </contour>
  </outline>
</glyph>
<glyph name="perthousand" format="1">
  <advance width="1133"/>
  <unicode hex="2030"/>
  <outline>
    <contour>
      <point x="931" y="294" type="curve" smooth="yes"/>
      <point x="867" y="294"/>
      <point x="822" y="239"/>
      <point x="822" y="163" type="curve" smooth="yes"/>
      <point x="822" y="93"/>
      <point x="868" y="33"/>
      <point x="931" y="33" type="curve" smooth="yes"/>
      <point x="1000" y="33"/>
      <point x="1039" y="93"/>
      <point x="1039" y="164" type="curve" smooth="yes"/>
      <point x="1039" y="239"/>
      <point x="991" y="294"/>
    </contour>
    <component base="percent"/>
  </outline>
</glyph>
<glyph name="Euro" format="1">
  <advance width="595"/>
  <unicode hex="20AC"/>
  <outline>
    <contour>
      <point x="75" y="345" type="move"/>
      <point x="423" y="345" type="line"/>
    </contour>
    <contour>
      <point x="75" y="201" type="move"/>
      <point x="423" y="201" type="line"/>
    </contour>
    <contour>
      <point x="508" y="489" type="move"/>
      <point x="477" y="506"/>
      <point x="430" y="517"/>
      <point x="380" y="517" type="curve" smooth="yes"/>
      <point x="245" y="517"/>
      <point x="147" y="419"/>
      <point x="147" y="272" type="curve" smooth="yes"/>
      <point x="147" y="138"/>
      <point x="224" y="34"/>
      <point x="385" y="34" type="curve" smooth="yes"/>
      <point x="434" y="34"/>
      <point x="478" y="45"/>
      <point x="512" y="63" type="curve"/>
    </contour>
  </outline>
</glyph>
<glyph name="uni20BA" format="1">
  <advance width="495"/>
  <unicode hex="20BA"/>
  <outline>
    <contour>
      <point x="141" y="508" type="move"/>
      <point x="141" y="43" type="line"/>
    </contour>
    <contour>
      <point x="149" y="43" type="move"/>
      <point x="257" y="40" type="line" smooth="yes"/>
      <point x="355" y="43"/>
      <point x="419" y="92"/>
      <point x="429" y="181" type="curve"/>
    </contour>
    <contour>
      <point x="298" y="431" type="move"/>
      <point x="62" y="344" type="line"/>
    </contour>
    <contour>
      <point x="298" y="278" type="move"/>
      <point x="62" y="192" type="line"/>
    </contour>
  </outline>
</glyph>
<glyph name="uni20BD" format="1">
  <advance width="532"/>
  <unicode hex="20BD"/>
  <outline>
    <contour>
      <point x="65" y="272" type="move"/>
      <point x="293" y="272" type="line" smooth="yes"/>
      <point x="404" y="272"/>
      <point x="452" y="326"/>
      <point x="452" y="391" type="curve" smooth="yes"/>
      <point x="452" y="461"/>
      <point x="392" y="509"/>
      <point x="293" y="509" type="curve" smooth="yes"/>
      <point x="158" y="509" type="line"/>
      <point x="158" y="43" type="line"/>
    </contour>
    <contour>
      <point x="64" y="129" type="move"/>
      <point x="326" y="129" type="line"/>
    </contour>
  </outline>
</glyph>
<glyph name="trademark" format="1">
  <advance width="758"/>
  <unicode hex="2122"/>
  <outline>
    <contour>
      <point x="165" y="543" type="move"/>
      <point x="165" y="312" type="line"/>
    </contour>
    <contour>
      <point x="60" y="543" type="move"/>
      <point x="272" y="543" type="line"/>
    </contour>
    <contour>
      <point x="405" y="547" type="move"/>
      <point x="393" y="479"/>
      <point x="377" y="367"/>
      <point x="371" y="311" type="curve"/>
    </contour>
    <contour>
      <point x="640" y="548" type="move"/>
      <point x="656" y="473"/>
      <point x="668" y="375"/>
      <point x="677" y="311" type="curve"/>
    </contour>
    <contour>
      <point x="415" y="541" type="move"/>
      <point x="445" y="481"/>
      <point x="492" y="387"/>
      <point x="525" y="321" type="curve"/>
    </contour>
    <contour>
      <point x="527" y="326" type="move"/>
      <point x="556" y="391"/>
      <point x="596" y="474"/>
      <point x="633" y="544" type="curve"/>
    </contour>
  </outline>
</glyph>
<glyph name="partialdiff" format="1">
  <advance width="566"/>
  <unicode hex="2202"/>
  <outline>
    <contour>
      <point x="218" y="469" type="move"/>
      <point x="246" y="495"/>
      <point x="285" y="512"/>
      <point x="322" y="512" type="curve" smooth="yes"/>
      <point x="354" y="512"/>
      <point x="386" y="500"/>
      <point x="409" y="478" type="curve" smooth="yes"/>
      <point x="440" y="448"/>
      <point x="454" y="383"/>
      <point x="454" y="317" type="curve" smooth="yes"/>
      <point x="454" y="223"/>
      <point x="421" y="128"/>
      <point x="380" y="89" type="curve" smooth="yes"/>
      <point x="347" y="57"/>
      <point x="305" y="40"/>
      <point x="262" y="40" type="curve" smooth="yes"/>
      <point x="181" y="40"/>
      <point x="125" y="96"/>
      <point x="125" y="164" type="curve" smooth="yes"/>
      <point x="125" y="246"/>
      <point x="191" y="316"/>
      <point x="307" y="316" type="curve" smooth="yes"/>
      <point x="345" y="316"/>
      <point x="392" y="309"/>
      <point x="441" y="298" type="curve"/>
    </contour>
  </outline>
</glyph>
<glyph name="radical" format="1">
  <advance width="537"/>
  <unicode hex="221A"/>
  <outline>
    <contour>
      <point x="134" y="323" type="move"/>
      <point x="173" y="237"/>
      <point x="235" y="110"/>
      <point x="273" y="39" type="curve"/>
    </contour>
    <contour>
      <point x="276" y="33" type="move"/>
      <point x="322" y="155"/>
      <point x="419" y="436"/>
      <point x="462" y="594" type="curve"/>
    </contour>
    <contour>
      <point x="129" y="333" type="move"/>
      <point x="63" y="314" type="line"/>
    </contour>
  </outline>
</glyph>
<glyph name="approxequal" format="1">
  <advance width="530"/>
  <unicode hex="2248"/>
  <outline>
    <contour>
      <point x="69" y="334" type="move"/>
      <point x="104" y="387"/>
      <point x="138" y="413"/>
      <point x="177" y="413" type="curve" smooth="yes"/>
      <point x="213" y="413"/>
      <point x="237" y="396"/>
      <point x="266" y="371" type="curve" smooth="yes"/>
      <point x="298" y="345"/>
      <point x="324" y="327"/>
      <point x="357" y="327" type="curve" smooth="yes"/>
      <point x="401" y="327"/>
      <point x="433" y="354"/>
      <point x="472" y="410" type="curve"/>
    </contour>
    <contour>
      <point x="69" y="141" type="move"/>
      <point x="104" y="194"/>
      <point x="134" y="223"/>
      <point x="177" y="223" type="curve" smooth="yes"/>
      <point x="208" y="223"/>
      <point x="236" y="202"/>
      <point x="266" y="180" type="curve" smooth="yes"/>
      <point x="299" y="155"/>
      <point x="324" y="137"/>
      <point x="358" y="137" type="curve" smooth="yes"/>
      <point x="401" y="137"/>
      <point x="433" y="161"/>
      <point x="472" y="218" type="curve"/>
    </contour>
  </outline>
</glyph>
<glyph name="greaterequal" format="1">
  <advance width="530"/>
  <unicode hex="2265"/>
  <outline>
    <contour>
      <point x="96" y="99" type="move"/>
      <point x="433" y="99" type="line"/>
    </contour>
    <contour>
      <point x="426" y="322" type="move"/>
      <point x="116" y="216" type="line"/>
    </contour>
    <contour>
      <point x="111" y="435" type="move"/>
      <point x="432" y="325" type="line"/>
    </contour>
  </outline>
</glyph>
<glyph name="lozenge" format="1">
  <advance width="389"/>
  <unicode hex="25CA"/>
  <outline>
    <contour>
      <point x="75" y="268" type="move"/>
      <point x="97" y="205"/>
      <point x="173" y="56"/>
      <point x="195" y="19" type="curve"/>
    </contour>
    <contour>
      <point x="197" y="16" type="move"/>
      <point x="222" y="59"/>
      <point x="291" y="196"/>
      <point x="318" y="268" type="curve"/>
    </contour>
    <contour>
      <point x="195" y="529" type="move"/>
      <point x="173" y="491"/>
      <point x="97" y="342"/>
      <point x="75" y="279" type="curve"/>
    </contour>
    <contour>
      <point x="318" y="279" type="move"/>
      <point x="291" y="352"/>
      <point x="222" y="488"/>
      <point x="197" y="532" type="curve"/>
    </contour>
  </outline>
</glyph>
<glyph name="dottedcircle" format="1">
  <advance width="660"/>
  <unicode hex="25CC"/>
  <outline>
    <contour>
      <point x="301" y="565" type="move"/>
      <point x="301" y="548" type="line"/>
    </contour>
    <contour>
      <point x="181" y="523" type="move"/>
      <point x="181" y="505" type="line"/>
    </contour>
    <contour>
      <point x="102" y="418" type="move"/>
      <point x="102" y="401" type="line"/>
    </contour>
    <contour>
      <point x="87" y="299" type="move"/>
      <point x="87" y="282" type="line"/>
    </contour>
    <contour>
      <point x="140" y="187" type="move"/>
      <point x="140" y="169" type="line"/>
    </contour>
    <contour>
      <point x="87" y="299" type="move"/>
      <point x="87" y="282" type="line"/>
    </contour>
    <contour>
      <point x="367" y="81" type="move"/>
      <point x="367" y="98" type="line"/>
    </contour>
    <contour>
      <point x="489" y="133" type="move"/>
      <point x="489" y="150" type="line"/>
    </contour>
    <contour>
      <point x="560" y="228" type="move"/>
      <point x="560" y="245" type="line"/>
    </contour>
    <contour>
      <point x="572" y="357" type="move"/>
      <point x="572" y="374" type="line"/>
    </contour>
    <contour>
      <point x="522" y="469" type="move"/>
      <point x="522" y="486" type="line"/>
    </contour>
    <contour>
      <point x="572" y="357" type="move"/>
      <point x="572" y="374" type="line"/>
    </contour>
    <contour>
      <point x="243" y="96" type="move"/>
      <point x="243" y="114" type="line"/>
    </contour>
    <contour>
      <point x="427" y="535" type="move"/>
      <point x="427" y="552" type="line"/>
    </contour>
  </outline>
</glyph>
<glyph name="brevecmb.cap" format="1">
  <advance width="0"/>
  <outline>
    <contour>
      <point x="-124" y="746" type="move"/>
      <point x="-95" y="711"/>
      <point x="-52" y="686"/>
      <point x="-5" y="686" type="curve" smooth="yes"/>
      <point x="48" y="686"/>
      <point x="85" y="710"/>
      <point x="111" y="746" type="curve"/>
    </contour>
  </outline>
</glyph>
<glyph name="caroncmb.cap" format="1">
  <advance width="0"/>
  <outline>
    <contour>
      <point x="-1" y="674" type="move"/>
      <point x="32" y="697"/>
      <point x="67" y="720"/>
      <point x="95" y="740" type="curve"/>
    </contour>
    <contour>
      <point x="-104" y="740" type="move"/>
      <point x="-76" y="720"/>
      <point x="-42" y="697"/>
      <point x="-8" y="674" type="curve"/>
    </contour>
  </outline>
</glyph>
<glyph name="commaaccent" format="1">
  <advance width="230"/>
  <outline>
    <contour>
      <point x="131" y="-89" type="move"/>
      <point x="137" y="-100"/>
      <point x="140" y="-112"/>
      <point x="140" y="-125" type="curve" smooth="yes"/>
      <point x="140" y="-161"/>
      <point x="110" y="-194"/>
      <point x="63" y="-215" type="curve"/>
    </contour>
  </outline>
</glyph>
<glyph name="dieresiscmb.cap" format="1">
  <advance width="0"/>
  <outline>
    <contour>
      <point x="-103" y="724" type="curve" smooth="yes"/>
      <point x="-114" y="724"/>
      <point x="-121" y="711"/>
      <point x="-121" y="699" type="curve" smooth="yes"/>
      <point x="-121" y="686"/>
      <point x="-114" y="674"/>
      <point x="-103" y="674" type="curve" smooth="yes"/>
      <point x="-93" y="674"/>
      <point x="-87" y="686"/>
      <point x="-87" y="699" type="curve" smooth="yes"/>
      <point x="-87" y="711"/>
      <point x="-93" y="724"/>
    </contour>
    <contour>
      <point x="90" y="724" type="curve" smooth="yes"/>
      <point x="79" y="724"/>
      <point x="73" y="711"/>
      <point x="73" y="699" type="curve" smooth="yes"/>
      <point x="73" y="686"/>
      <point x="79" y="674"/>
      <point x="90" y="674" type="curve" smooth="yes"/>
      <point x="100" y="674"/>
      <point x="106" y="686"/>
      <point x="106" y="699" type="curve" smooth="yes"/>
      <point x="106" y="711"/>
      <point x="100" y="724"/>
    </contour>
  </outline>
</glyph>
<glyph name="hungarianumlautcmb.cap" format="1">
  <advance width="0"/>
  <outline>
    <contour>
      <point x="-24" y="738" type="move"/>
      <point x="-57" y="714"/>
      <point x="-87" y="691"/>
      <point x="-113" y="665" type="curve"/>
    </contour>
    <contour>
      <point x="181" y="738" type="move"/>
      <point x="145" y="710"/>
      <point x="116" y="685"/>
      <point x="92" y="665" type="curve"/>
    </contour>
  </outline>
</glyph>
<glyph name="ringcmb.cap" format="1">
  <advance width="0"/>
  <outline>
    <contour>
      <point x="82" y="683" type="curve" smooth="yes"/>
      <point x="82" y="722"/>
      <point x="49" y="758"/>
      <point x="-5" y="758" type="curve" smooth="yes"/>
      <point x="-57" y="758"/>
      <point x="-89" y="719"/>
      <point x="-89" y="683" type="curve" smooth="yes"/>
      <point x="-89" y="646"/>
      <point x="-57" y="608"/>
      <point x="-5" y="608" type="curve" smooth="yes"/>
      <point x="49" y="608"/>
      <point x="82" y="644"/>
    </contour>
  </outline>
</glyph>
<glyph name="ringcmb" format="1">
  <advance width="0"/>
  <outline>
    <contour>
      <point x="79" y="598" type="curve" smooth="yes"/>
      <point x="79" y="637"/>
      <point x="46" y="673"/>
      <point x="-8" y="673" type="curve" smooth="yes"/>
      <point x="-60" y="673"/>
      <point x="-92" y="634"/>
      <point x="-92" y="598" type="curve" smooth="yes"/>
      <point x="-92" y="561"/>
      <point x="-60" y="523"/>
      <point x="-8" y="523" type="curve" smooth="yes"/>
      <point x="46" y="523"/>
      <point x="79" y="559"/>
    </contour>
  </outline>
</glyph>
<glyph name="tildecmb.cap" format="1">
  <advance width="0"/>
  <outline>
    <contour>
      <point x="-132" y="688" type="move"/>
      <point x="-109" y="716"/>
      <point x="-87" y="733"/>
      <point x="-64" y="733" type="curve" smooth="yes"/>
      <point x="-43" y="733"/>
      <point x="-25" y="721"/>
      <point x="-5" y="707" type="curve" smooth="yes"/>
      <point x="15" y="693"/>
      <point x="33" y="682"/>
      <point x="53" y="682" type="curve" smooth="yes"/>
      <point x="81" y="682"/>
      <point x="102" y="699"/>
      <point x="128" y="732" type="curve"/>
    </contour>
  </outline>
</glyph>
<glyph name="twosuperior" format="1">
  <advance width="355"/>
  <outline>
    <contour>
      <point x="91" y="283" type="move"/>
      <point x="180" y="362" type="line" smooth="yes"/>
      <point x="238" y="415"/>
      <point x="256" y="435"/>
      <point x="256" y="467" type="curve" smooth="yes"/>
      <point x="256" y="496"/>
      <point x="232" y="524"/>
      <point x="181" y="524" type="curve" smooth="yes"/>
      <point x="152" y="524"/>
      <point x="129" y="516"/>
      <point x="104" y="501" type="curve"/>
    </contour>
    <contour>
      <point x="275" y="278" type="move"/>
      <point x="86" y="278" type="line"/>
    </contour>
  </outline>
</glyph>
<glyph name="uni2113" format="1">
  <advance width="362"/>
  <outline>
    <contour>
      <point x="53" y="132" type="move"/>
      <point x="139" y="162"/>
      <point x="187" y="188"/>
      <point x="221" y="220" type="curve" smooth="yes"/>
      <point x="251" y="249"/>
      <point x="282" y="318"/>
      <point x="282" y="382" type="curve" smooth="yes"/>
      <point x="282" y="456"/>
      <point x="260" y="533"/>
      <point x="195" y="533" type="curve" smooth="yes"/>
      <point x="127" y="533"/>
      <point x="112" y="471"/>
      <point x="112" y="396" type="curve" smooth="yes"/>
      <point x="112" y="111" type="line" smooth="yes"/>
      <point x="112" y="65"/>
      <point x="145" y="33"/>
      <point x="195" y="33" type="curve" smooth="yes"/>
      <point x="225" y="33"/>
      <point x="256" y="42"/>
      <point x="285" y="59" type="curve"/>
    </contour>
  </outline>
</glyph>
